<?xml version="1.0" standalone="no"?>
<!DOCTYPE svg PUBLIC "-//W3C//DTD SVG 20010904//EN"
 "http://www.w3.org/TR/2001/REC-SVG-20010904/DTD/svg10.dtd">
<svg version="1.0" xmlns="http://www.w3.org/2000/svg"
 width="240.000000pt" height="240.000000pt" viewBox="0 0 240.000000 240.000000"
 preserveAspectRatio="xMidYMid meet">
<metadata>
Created by potrace 1.14, written by Peter Selinger 2001-2017
</metadata>
<g transform="translate(0.000000,240.000000) scale(0.100000,-0.100000)"
fill="#000000" stroke="none">
<path d="M1078 2395 c-2 -1 -21 -5 -43 -8 -112 -16 -258 -57 -320 -91 -11 -5
-23 -9 -27 -8 -5 1 -8 -3 -8 -8 0 -6 -3 -10 -7 -9 -16 2 -53 -14 -53 -22 0 -5
-5 -9 -10 -9 -10 0 -80 -43 -107 -65 -7 -5 -19 -16 -27 -22 -8 -7 -18 -13 -21
-13 -10 0 -171 -164 -201 -205 -16 -22 -34 -46 -41 -53 -23 -24 -105 -182
-135 -260 -50 -130 -71 -249 -72 -407 0 -77 3 -158 6 -180 22 -134 46 -215 94
-323 13 -29 24 -57 24 -62 0 -6 5 -10 11 -10 5 0 7 -4 4 -10 -3 -5 -2 -10 4
-10 6 0 13 -11 17 -25 3 -14 10 -25 15 -25 5 0 9 -5 9 -11 0 -19 91 -131 169
-210 116 -116 269 -214 423 -273 132 -49 243 -69 398 -70 80 0 161 2 180 6 19
4 55 10 80 13 54 9 173 47 255 83 58 25 185 98 195 111 3 4 25 21 50 39 53 38
164 149 206 207 16 22 34 46 41 53 23 24 105 182 135 260 50 130 71 249 72
407 0 129 -4 188 -19 255 -4 14 -8 36 -11 50 -7 35 -54 171 -67 195 -6 11 -10
23 -9 28 1 4 -3 7 -10 7 -6 0 -8 3 -5 6 4 4 -2 19 -12 33 -10 14 -22 36 -25
49 -4 12 -11 22 -16 22 -5 0 -11 8 -15 19 -5 16 -16 31 -55 78 -5 7 -10 15
-10 19 0 4 -39 46 -87 94 -84 82 -209 180 -231 180 -6 0 -12 4 -14 9 -4 11
-112 65 -190 95 -126 47 -244 68 -395 71 -78 2 -143 2 -145 0z"/>
</g>
</svg>
